<?xml version="1.0" encoding="UTF-8" standalone="no"?>
<svg
   width="21"
   height="21"
   viewBox="0 0 21 21"
   fill="none"
   version="1.1"
   id="svg104"
   xmlns="http://www.w3.org/2000/svg"
   xmlns:svg="http://www.w3.org/2000/svg">
  <g
     id="g106"
     transform="translate(-82,-151)">
    <circle
       cx="92.5"
       cy="161.5"
       r="10"
       stroke="#fff143"
       id="circle9" />
    <path
       d="m 96,166 h -0.8555 c -0.0877,0 -0.1566,-0.024 -0.2068,-0.072 -0.0501,-0.055 -0.0909,-0.106 -0.1222,-0.154 l -2.839,-3.989 c -0.0251,0.108 -0.0721,0.214 -0.141,0.317 l -2.7074,3.672 c -0.0439,0.054 -0.0909,0.105 -0.141,0.154 C 88.9432,165.976 88.8837,166 88.8085,166 H 88 L 91.4031,161.396 88.1316,157 h 0.8555 c 0.0877,0 0.1535,0.018 0.1974,0.054 0.0439,0.036 0.0815,0.079 0.1128,0.127 l 2.745,3.808 c 0.0125,-0.048 0.0313,-0.1 0.0564,-0.154 0.0313,-0.054 0.0627,-0.108 0.094,-0.163 l 2.5664,-3.482 c 0.0376,-0.054 0.0783,-0.1 0.1222,-0.136 0.0439,-0.036 0.1003,-0.054 0.1692,-0.054 h 0.8179 l -3.2621,4.342 z"
       fill="#fff143"
       id="path9" />
  </g>
  <defs
     id="defs104" />
</svg>
