<?xml version="1.0" encoding="UTF-8" standalone="no"?>
<svg
   width="21"
   height="21"
   viewBox="0 0 21 21"
   fill="none"
   version="1.1"
   id="svg104"
   xmlns="http://www.w3.org/2000/svg"
   xmlns:svg="http://www.w3.org/2000/svg">
  <g
     id="g105"
     transform="translate(-38,-151)">
    <path
       d="m 45.752,157.664 c 0.144,-0.144 0.3067,-0.283 0.488,-0.416 0.1813,-0.133 0.3787,-0.251 0.592,-0.352 0.2187,-0.107 0.456,-0.189 0.712,-0.248 0.256,-0.064 0.5333,-0.096 0.832,-0.096 0.368,0 0.7173,0.056 1.048,0.168 0.336,0.112 0.6267,0.272 0.872,0.48 0.2507,0.208 0.448,0.464 0.592,0.768 0.1493,0.299 0.224,0.635 0.224,1.008 0,0.405 -0.064,0.755 -0.192,1.048 -0.1227,0.293 -0.28,0.552 -0.472,0.776 -0.192,0.219 -0.4,0.413 -0.624,0.584 -0.224,0.165 -0.4347,0.323 -0.632,0.472 -0.1973,0.144 -0.3653,0.291 -0.504,0.44 -0.1333,0.149 -0.2053,0.315 -0.216,0.496 l -0.088,1.312 h -0.52 l -0.048,-1.368 c -0.0107,-0.224 0.0453,-0.421 0.168,-0.592 0.1227,-0.171 0.28,-0.333 0.472,-0.488 0.192,-0.155 0.4,-0.312 0.624,-0.472 0.224,-0.16 0.432,-0.341 0.624,-0.544 0.1973,-0.203 0.36,-0.435 0.488,-0.696 0.1333,-0.261 0.2,-0.573 0.2,-0.936 0,-0.288 -0.056,-0.544 -0.168,-0.768 -0.112,-0.229 -0.264,-0.421 -0.456,-0.576 -0.192,-0.16 -0.4133,-0.28 -0.664,-0.36 -0.2507,-0.085 -0.512,-0.128 -0.784,-0.128 -0.352,0 -0.6587,0.048 -0.92,0.144 -0.256,0.091 -0.472,0.195 -0.648,0.312 -0.176,0.112 -0.3147,0.216 -0.416,0.312 -0.1013,0.091 -0.1707,0.136 -0.208,0.136 -0.08,0 -0.1387,-0.032 -0.176,-0.096 z m 1.616,9.72 c 0,-0.101 0.0187,-0.197 0.056,-0.288 0.0373,-0.091 0.088,-0.168 0.152,-0.232 0.0693,-0.069 0.1467,-0.123 0.232,-0.16 0.0907,-0.043 0.1893,-0.064 0.296,-0.064 0.1013,0 0.1973,0.021 0.288,0.064 0.0907,0.037 0.168,0.091 0.232,0.16 0.0693,0.064 0.1227,0.141 0.16,0.232 0.0427,0.091 0.064,0.187 0.064,0.288 0,0.107 -0.0213,0.205 -0.064,0.296 -0.0373,0.085 -0.0907,0.163 -0.16,0.232 -0.064,0.064 -0.1413,0.115 -0.232,0.152 -0.0907,0.037 -0.1867,0.056 -0.288,0.056 -0.208,0 -0.384,-0.069 -0.528,-0.208 -0.1387,-0.144 -0.208,-0.32 -0.208,-0.528 z"
       fill="#fff143"
       id="path7" />
    <circle
       cx="48.5"
       cy="161.5"
       r="10"
       stroke="#fff143"
       id="circle8" />
  </g>
  <defs
     id="defs104" />
</svg>
