<svg width="1357" height="372" viewBox="0 0 1357 372" fill="none" xmlns="http://www.w3.org/2000/svg">
<g clip-path="url(#clip0_133_5928)">
<path d="M741.842 7.73144C739.191 7.73144 694.998 9.51562 693.231 9.51562C692.052 9.51562 691.168 9.51562 691.168 13.3813V170.091C691.168 175.741 692.052 180.796 687.044 170.389C682.33 160.278 659.055 102.293 649.922 81.4772C640.494 60.9593 618.988 12.1919 618.398 10.4077C617.514 8.32617 617.514 7.73144 615.452 7.73144C613.684 7.73144 563.894 8.92089 560.948 9.51562C558.002 10.1103 558.886 11.2998 558.886 12.4892C559.181 14.5708 558.886 137.976 558.591 175.146C558.297 212.019 558.886 300.633 558.886 302.715C558.886 305.391 558.591 305.986 560.654 305.986C562.716 305.986 608.381 305.094 610.738 304.201C613.684 304.201 614.568 305.094 613.979 299.444C613.979 293.794 612.801 135.597 612.801 129.055C612.801 122.216 614.863 126.974 615.747 129.947C617.514 132.624 689.106 300.336 690.285 303.309C692.052 306.283 692.052 307.175 694.409 307.175C696.766 307.175 741.253 305.391 743.905 305.391C745.967 305.391 746.556 305.094 746.556 302.12C746.556 299.146 745.378 12.1919 745.378 10.1103C745.083 8.32617 744.199 7.43408 742.137 7.43408L741.842 7.73144Z" fill="#FFF143"/>
<path d="M1017.01 9.81298C1014.95 9.51562 855.564 8.62354 853.502 8.62354C850.85 8.62354 849.966 8.9209 849.966 11.8945C849.966 15.1655 845.252 302.12 846.136 304.201C846.136 305.589 846.824 306.283 848.199 306.283C850.261 305.986 1015.25 304.499 1018.49 304.499C1021.14 304.499 1020.55 303.309 1020.25 301.525C1019.66 299.444 1020.25 252.163 1020.25 250.082C1020.25 248 1019.66 247.405 1017.6 247.405C1014.95 247.703 909.184 247.703 906.827 247.703C904.765 247.405 904.176 246.513 904.176 244.134C903.586 241.755 904.176 188.528 904.176 186.149C903.586 184.365 905.059 183.175 907.122 182.878C910.068 182.58 962.804 182.58 965.161 182.58C967.223 182.58 967.223 182.283 967.223 180.499C967.223 178.715 968.107 130.839 968.107 129.055C968.696 126.974 968.696 127.271 967.223 127.271C965.75 127.271 908.3 126.379 905.943 126.379C904.176 126.379 903.881 125.487 903.881 123.703C903.881 121.918 903.292 70.1775 903.292 67.2039C903.292 66.3118 903.881 66.0144 905.943 65.4197C908.006 65.4197 1011.42 64.5276 1014.66 64.2302C1018.49 63.3382 1018.49 62.4461 1018.49 60.3645C1018.78 58.283 1018.78 13.084 1018.49 11.8945C1018.49 10.7051 1018.78 9.21826 1016.42 9.21826L1017.01 9.81298Z" fill="#FFF143"/>
<path d="M454.592 7.13672C451.941 7.43408 409.811 7.43408 405.981 8.0288C402.151 8.0288 402.74 9.21825 402.74 11.0024C402.74 13.084 403.034 199.827 402.74 212.614C402.151 225.4 401.856 250.974 375.341 251.271C348.236 252.163 341.754 234.321 341.754 214.993C341.46 195.367 339.987 12.7866 339.987 11.0024C339.987 8.92089 340.281 8.0288 338.219 8.0288H288.429C285.777 8.32617 285.777 9.81298 285.777 12.7866C285.777 14.8681 288.429 206.964 288.429 214.101C288.429 221.237 288.723 254.245 312.587 278.926C335.862 304.499 359.726 306.283 370.921 306.283C382.117 306.283 415.114 303.607 435.737 278.628C456.36 253.947 459.895 234.916 459.011 201.909C458.717 169.199 457.244 13.084 457.244 10.4077C456.949 7.43408 456.949 6.83936 454.592 6.83936V7.13672Z" fill="#FFF143"/>
<path d="M1260.96 33.602C1247.99 19.9233 1228.55 11.8945 1215 10.7051C1201.44 9.51562 1128.08 8.9209 1125.14 8.9209C1122.19 8.9209 1121.01 8.02881 1121.01 9.81298C1121.01 11.0024 1119.25 109.429 1119.25 124.595C1119.25 140.652 1118.95 300.931 1118.36 302.417C1118.36 304.499 1117.77 304.499 1119.25 305.391C1121.01 305.688 1168.45 306.283 1192.9 304.499C1217.35 303.309 1227.96 303.607 1244.75 293.496C1261.54 282.791 1268.32 272.978 1274.8 261.084C1280.99 249.487 1283.64 239.674 1284.52 229.564C1284.82 219.453 1284.82 201.612 1285.41 180.201C1286 159.386 1286 103.185 1285.41 85.6403C1285.11 68.096 1274.51 46.9832 1260.96 33.3046V33.602ZM1234.15 157.305C1234.15 179.607 1232.97 222.13 1231.49 228.077C1230.61 234.619 1227.37 238.782 1222.95 243.54C1218.83 248.595 1214.41 250.379 1207.92 252.163C1201.44 253.947 1178.46 253.055 1175.52 252.163C1172.57 251.271 1170.51 250.082 1170.51 248.892C1170.51 247.703 1171.69 70.1775 1171.69 68.3933C1171.69 66.6091 1172.57 66.3118 1173.45 65.7171C1174.34 65.1223 1179.64 64.5276 1186.12 63.9329C1192.9 63.9329 1196.73 64.2303 1201.74 64.825C1206.45 65.4197 1216.17 67.5012 1224.42 75.53C1232.38 84.4509 1233.26 93.3717 1234.15 100.211C1235.03 107.348 1234.15 135.597 1234.15 157.602V157.305Z" fill="#FFF143"/>
<path d="M191.5 9.813C191.5 8.02883 190.616 8.02883 189.438 8.02883C188.554 8.32619 126.096 8.02883 95.4555 8.02883C64.5209 8.32619 12.3739 8.32619 10.3116 8.02883C7.66001 7.43411 7.66001 8.92092 7.3654 10.1104C7.07078 12.1919 8.24925 59.1751 8.24925 60.6619C8.24925 61.8514 8.83848 61.8514 10.0169 61.8514C11.1954 61.8514 70.4132 62.7435 71.8862 63.0408C73.3593 63.3382 74.5378 64.825 74.5378 66.0144C74.5378 67.7986 76.6001 302.12 76.6001 303.607C76.6001 305.391 76.8947 305.391 77.4839 305.391C78.3678 305.391 93.0986 305.688 102.821 305.688C112.543 305.688 126.39 305.391 127.274 305.391C128.158 305.391 128.452 305.391 128.158 303.309C128.158 302.12 127.274 69.2854 127.863 67.2039C127.863 65.1224 129.631 63.9329 131.988 63.9329C134.934 63.9329 152.611 63.6355 164.101 63.6355C175.591 63.6355 190.322 63.3382 191.5 63.3382C192.679 63.3382 193.268 62.7435 193.268 61.554C193.268 61.554 192.384 44.9017 192.384 34.7914C193.268 24.6811 191.795 11.8945 191.795 10.1104L191.5 9.813Z" fill="#FFF143"/>
<path d="M1224.42 75.2326C1215.88 67.2038 1206.16 65.1223 1201.74 64.5276C1196.73 64.2302 1192.9 63.6355 1186.12 63.6355C1179.64 63.9329 1174.34 64.8249 1173.45 65.4197C1172.57 65.717 1171.69 66.3118 1171.69 68.0959C1171.69 69.8801 1170.51 247.108 1170.51 248.595C1170.51 250.082 1172.57 251.271 1175.52 251.866C1178.46 252.758 1201.74 253.65 1207.92 251.866C1214.7 250.082 1218.83 248.595 1222.95 243.242C1227.07 238.484 1230.61 234.321 1231.49 227.779C1232.67 221.832 1234.15 179.309 1234.15 157.007C1234.15 134.705 1235.03 106.753 1234.15 99.6163C1233.26 92.777 1232.38 83.8561 1224.42 74.9353V75.2326Z" fill="url(#paint0_linear_133_5928)"/>
<path d="M210.945 4.75779C209.177 2.97362 206.231 2.08153 203.874 2.08153C200.928 2.08153 8.54386 0 5.5977 0C2.35693 0.297362 0 1.18945 0 7.73141C0 10.1103 0 71.0695 0 72.259C0 73.4484 0 75.53 2.06231 77.3141C3.83 79.3957 60.9854 133.218 62.4585 134.408C64.5208 136.192 65.1101 136.489 65.1101 139.165C65.1101 141.247 65.9939 305.688 65.4047 308.067C65.4047 311.041 65.6993 312.825 67.1724 314.014C68.3508 316.096 114.311 360.7 116.668 362.484C118.73 364.566 122.855 368.729 125.801 368.729C128.452 369.026 200.339 369.026 203.874 369.026C207.115 368.729 208.883 368.134 208.588 364.863C208.588 360.7 210.356 146.897 210.356 144.815C210.356 142.139 211.239 141.544 213.891 141.544C215.659 141.544 257.789 141.247 259.262 141.247C260.735 141.247 261.913 139.463 261.913 137.381C261.913 135.3 261.913 61.2566 262.797 58.283C262.797 55.3094 261.913 53.5252 260.735 52.3357C259.556 50.5516 213.596 6.2446 211.534 4.75779H210.945ZM191.206 63.0408C191.206 63.0408 174.707 63.3381 163.806 63.3381C152.906 63.3381 134.639 63.6355 131.693 63.6355C129.042 63.6355 127.569 64.8249 127.569 66.9065C127.274 68.988 127.863 301.823 127.863 303.012C128.158 305.094 127.863 305.094 126.979 305.094C126.096 305.094 111.659 305.391 102.526 305.391C93.3932 305.391 78.0732 305.094 77.1893 305.094C76.8947 305.094 76.3055 305.094 76.3055 303.309C76.3055 302.12 74.2432 67.5012 74.2432 65.717C74.2432 64.5276 73.3593 63.0408 71.5916 62.7434C69.8239 62.446 10.9008 61.554 9.72232 61.554C8.54386 61.554 7.95462 61.554 7.95462 60.3645C7.95462 58.5803 6.77616 11.8945 7.07078 9.81295C7.36539 8.6235 7.36539 7.13669 10.0169 7.73141C12.0792 8.02878 64.5208 8.02878 95.1609 7.73141C125.801 7.73141 188.259 8.02878 189.143 7.73141C190.322 7.73141 191.206 7.73141 191.206 9.51559C191.206 11.2998 192.384 24.0863 191.795 34.1966C191.795 44.307 192.679 59.7698 192.679 60.9592C192.679 62.1487 192.089 62.7434 190.911 62.7434L191.206 63.0408Z" fill="url(#paint1_linear_133_5928)"/>
<path d="M526.773 56.2014C524.711 53.5252 476.099 8.6235 473.153 4.7578C469.323 1.78418 466.377 0.89209 463.431 0.89209C460.484 0.89209 405.097 1.18945 400.677 1.18945C396.258 1.18945 395.669 2.3789 395.669 6.83933V41.036C395.669 44.9017 395.669 43.7122 391.544 39.8465C386.536 34.1966 355.601 6.24461 354.128 4.46044C352.36 3.27099 351.182 2.3789 347.352 2.3789C343.227 2.3789 287.545 3.27099 283.126 3.56835C279.885 3.56835 280.18 4.46044 280.18 6.83933C280.18 8.92087 280.474 178.715 281.063 198.935C281.063 218.561 280.769 243.242 289.607 262.273C299.035 281.305 314.06 302.417 327.023 316.393C340.87 329.477 371.216 355.05 397.142 364.566C422.479 374.082 465.198 374.379 484.937 368.134C512.042 360.106 527.951 331.559 527.951 314.906C527.951 294.983 529.719 67.5012 529.13 63.3381C529.13 58.5803 528.835 58.5803 527.068 56.4988L526.773 56.2014ZM435.737 278.926C415.114 303.904 381.822 306.58 370.921 306.58C360.02 306.58 335.862 304.796 312.587 279.223C289.018 254.542 288.429 221.832 288.429 214.398C288.429 206.964 285.777 15.1655 285.777 13.0839C285.777 10.1103 285.777 8.92087 288.429 8.32614H338.219C340.281 8.32614 339.987 9.21823 339.987 11.2998C339.987 13.0839 341.165 195.664 341.754 215.29C341.754 234.321 348.53 252.163 375.34 251.568C401.856 251.271 402.445 225.698 402.74 212.911C403.034 200.125 402.74 13.3813 402.74 11.2998C402.74 9.51559 402.15 8.32614 405.98 8.32614C409.81 7.73142 451.941 7.73142 454.592 7.43406C456.654 7.43406 456.654 7.73142 457.244 11.0024C457.244 13.6787 458.422 169.794 459.011 202.504C459.895 235.213 456.36 254.542 435.737 279.223V278.926Z" fill="url(#paint2_linear_133_5928)"/>
<path d="M810.193 44.6043C806.363 41.3333 801.649 34.494 789.865 23.789C778.08 13.6786 768.652 7.13668 766.295 5.64987C763.055 2.97361 761.287 2.08153 755.395 1.78416C748.913 1.78416 690.874 1.4868 686.749 1.4868C683.508 1.4868 682.919 1.4868 682.919 5.64987C682.919 8.92085 682.625 30.6283 682.625 34.1966C682.625 37.1703 683.803 39.8465 678.795 35.0887C672.902 30.3309 632.835 7.43404 629.004 4.75778C625.174 2.67625 623.112 0.892077 618.104 1.4868C613.095 1.4868 560.359 1.78416 556.529 2.37889C552.699 2.97361 552.404 3.27097 551.815 6.54196C551.815 9.21822 550.931 135.894 550.637 164.441C550.637 192.393 550.931 308.662 550.931 312.528C550.931 317.285 551.226 319.07 554.761 321.448C558.297 324.422 603.668 366.647 606.319 369.026C609.265 371.108 610.444 371.108 613.095 371.108C615.747 371.405 680.268 372 683.803 371.405C687.633 371.108 690.285 371.405 690.285 366.35V339.588C690.285 336.317 690.285 334.83 694.115 338.398C698.239 341.669 734.477 365.161 738.012 367.837C742.137 370.513 744.494 370.811 748.618 371.108C753.627 371.108 810.193 371.405 812.845 371.108C814.907 370.216 816.675 368.134 816.969 360.998C816.969 354.158 815.202 65.717 814.907 58.283C814.612 50.5516 814.907 48.47 810.782 44.6043H810.193ZM744.199 305.688C741.548 305.688 697.355 307.472 694.704 307.472C692.052 307.472 692.052 306.58 690.579 303.607C689.401 300.633 617.514 132.921 616.041 130.245C615.158 127.271 613.095 122.513 613.095 129.353C613.095 135.597 614.274 294.091 614.274 299.741C614.863 305.391 613.979 304.499 611.033 304.499C608.381 305.391 563.011 306.283 560.948 306.283C558.886 306.283 559.181 305.391 559.181 303.012C559.181 300.93 558.297 212.317 558.886 175.444C559.181 138.273 559.77 14.8681 559.181 12.7866C559.181 11.5971 558.297 10.1103 561.243 9.81294C564.189 9.51558 613.979 8.02877 615.747 8.02877C617.809 8.02877 617.809 8.62349 618.693 10.705C619.577 12.4892 641.084 61.2566 650.217 81.7746C659.35 102.59 682.625 160.576 687.338 170.686C692.347 180.796 691.463 175.741 691.463 170.388V13.0839C691.463 9.21822 692.347 9.21822 693.525 9.21822C695.293 9.21822 739.485 7.43404 742.137 7.43404C744.199 7.43404 745.083 8.32613 745.378 10.1103C745.378 12.1918 746.556 299.146 746.556 302.12C746.556 305.094 745.967 305.391 743.905 305.391L744.199 305.688Z" fill="url(#paint3_linear_133_5928)"/>
<path d="M1091.85 57.3909C1091.85 54.4173 1092.73 53.8225 1090.08 51.4436C1087.43 48.7674 1037.93 4.46044 1035.57 3.27099C1033.51 2.08154 1032.63 1.48681 1029.98 1.48681C1027.03 1.48681 850.85 0.594729 847.315 1.48681C843.485 1.78418 842.306 2.67626 842.601 5.64988C842.896 10.4077 839.655 303.607 839.655 307.472C839.655 311.338 842.306 312.23 842.896 313.42C844.074 314.609 899.756 366.945 901.524 368.432C903.292 369.621 903.586 370.216 905.649 370.216C907.711 370.216 1083.6 368.432 1086.84 368.432C1089.78 368.432 1090.67 368.134 1090.67 364.269C1090.67 360.403 1090.67 303.012 1090.37 301.228C1090.37 299.146 1089.78 298.552 1088.61 296.47C1086.84 294.388 1032.63 240.269 1031.15 239.079C1029.98 237.295 1030.86 236.998 1031.45 236.7C1032.33 235.808 1032.33 234.916 1032.33 233.132C1032.33 231.05 1031.15 184.959 1031.15 182.878C1031.15 181.094 1031.15 180.796 1029.98 179.012C1029.09 177.823 994.917 130.542 993.444 128.46C992.659 127.271 993.248 126.676 995.212 126.676C997.274 126.974 1085.36 127.866 1088.9 127.866C1091.55 127.568 1091.55 126.974 1091.85 124C1091.85 120.729 1090.96 59.7698 1091.55 57.0935L1091.85 57.3909ZM1019.08 60.9592C1019.08 63.0408 1019.08 63.9329 1015.25 64.8249C1011.71 65.4197 908.595 66.0144 906.533 66.0144C904.47 66.3118 903.881 66.9065 903.881 67.7986C903.881 70.7722 904.47 122.811 904.47 124.297C904.47 125.784 904.765 126.974 906.533 126.974C908.595 126.974 966.339 127.866 967.813 127.866C969.286 127.866 968.991 127.271 968.696 129.65C968.696 131.434 967.813 179.309 967.813 181.094C967.813 182.878 967.813 183.175 965.75 183.175C963.099 183.175 910.657 183.175 907.711 183.472C905.649 183.77 904.176 185.257 904.765 186.743C904.765 188.825 904.176 242.053 904.765 244.729C904.765 246.811 905.059 247.703 907.416 248.297C909.773 248.297 1015.84 248.297 1018.19 248C1020.25 248 1020.84 248.297 1020.84 250.676C1020.84 253.055 1020.25 300.038 1020.84 302.12C1021.14 303.904 1021.73 305.093 1019.08 305.093C1015.83 305.093 850.85 306.283 848.788 306.878C847.413 306.878 846.726 306.184 846.726 304.796C845.842 302.715 850.556 15.7602 850.556 12.4892C850.556 9.51559 851.439 9.21823 854.091 9.21823C856.153 9.21823 1015.54 10.1103 1017.6 10.4077C1020.25 10.4077 1019.67 11.5971 1019.67 13.0839C1019.96 14.2734 1019.96 59.4724 1019.67 61.554L1019.08 60.9592Z" fill="url(#paint4_linear_133_5928)"/>
<path d="M1356.71 240.566C1356.71 214.101 1356.71 164.441 1356.41 151.06C1355.53 137.381 1355.23 133.218 1351.4 125.189C1348.16 117.161 1338.44 98.7242 1326.65 82.6667C1314.87 66.6091 1302.2 53.8226 1292.18 44.9017C1282.46 35.9808 1263.61 18.4365 1245.05 10.4077C1227.07 1.48682 1217.35 2.3789 1201.74 1.78418C1185.24 1.48682 1123.66 1.48682 1119.54 1.48682C1114.83 1.78418 1114.83 2.3789 1114.83 4.7578C1114.53 8.62351 1112.76 159.683 1112.17 195.367C1112.17 230.753 1111.88 303.607 1111.88 307.77C1112.17 311.636 1111.88 311.933 1113.94 314.014C1116 315.799 1163.14 362.484 1166.97 366.053C1170.51 368.729 1169.92 368.134 1174.93 368.729C1180.53 369.026 1284.52 370.513 1299.26 368.729C1313.69 366.945 1325.77 363.674 1337.26 349.995C1349.05 336.911 1354.05 329.477 1355.82 310.743C1357.88 292.01 1357 267.031 1357 240.566H1356.71ZM1285.41 180.499C1285.11 201.909 1285.11 219.751 1284.52 229.861C1283.64 239.971 1281.28 249.784 1274.8 261.381C1268.32 273.276 1261.84 283.089 1244.75 293.794C1227.96 303.904 1217.35 303.607 1192.9 304.796C1168.45 306.58 1120.72 305.986 1119.25 305.688C1118.07 304.796 1118.36 304.796 1118.36 302.715C1118.66 300.93 1119.25 140.95 1119.25 124.892C1119.25 109.727 1121.01 11.2998 1121.01 10.1103C1121.01 8.32614 1122.19 9.21823 1125.14 9.21823C1128.08 9.21823 1201.44 9.51559 1215 11.0024C1228.55 12.1919 1247.99 20.2206 1260.96 33.8993C1274.51 47.5779 1285.11 68.6907 1285.41 86.235C1286 103.779 1286 159.981 1285.41 180.796V180.499Z" fill="url(#paint5_linear_133_5928)"/>
</g>
<defs>
<linearGradient id="paint0_linear_133_5928" x1="1170.51" y1="158.494" x2="1234.44" y2="158.494" gradientUnits="userSpaceOnUse">
<stop stop-color="#7736E7"/>
<stop offset="1" stop-color="#1D1F4A"/>
</linearGradient>
<linearGradient id="paint1_linear_133_5928" x1="0" y1="184.662" x2="262.503" y2="184.662" gradientUnits="userSpaceOnUse">
<stop stop-color="#7736E7"/>
<stop offset="1" stop-color="#1D1F4A"/>
</linearGradient>
<linearGradient id="paint2_linear_133_5928" x1="279.885" y1="186.446" x2="528.835" y2="186.446" gradientUnits="userSpaceOnUse">
<stop stop-color="#7736E7"/>
<stop offset="1" stop-color="#1D1F4A"/>
</linearGradient>
<linearGradient id="paint3_linear_133_5928" x1="550.342" y1="186.446" x2="816.675" y2="186.446" gradientUnits="userSpaceOnUse">
<stop stop-color="#7736E7"/>
<stop offset="1" stop-color="#1D1F4A"/>
</linearGradient>
<linearGradient id="paint4_linear_133_5928" x1="839.949" y1="185.851" x2="1092.14" y2="185.851" gradientUnits="userSpaceOnUse">
<stop stop-color="#7736E7"/>
<stop offset="1" stop-color="#1D1F4A"/>
</linearGradient>
<linearGradient id="paint5_linear_133_5928" x1="1111.29" y1="185.257" x2="1357" y2="185.257" gradientUnits="userSpaceOnUse">
<stop stop-color="#7736E7"/>
<stop offset="1" stop-color="#1D1F4A"/>
</linearGradient>
<clipPath id="clip0_133_5928">
<rect width="1357" height="372" fill="white"/>
</clipPath>
</defs>
</svg>
