<?xml version="1.0" encoding="UTF-8" standalone="no"?>
<svg
   width="27.970901"
   height="27"
   viewBox="0 0 27.970901 27"
   fill="none"
   version="1.1"
   id="svg104"
   xmlns="http://www.w3.org/2000/svg"
   xmlns:svg="http://www.w3.org/2000/svg">
  <g
     clip-path="url(#clip0_158_94)"
     id="g2"
     transform="translate(-38.000001,-86)">
    <path
       d="M 49.7404,108.642 C 43.2646,108.642 38,103.566 38,97.3211 38,91.0765 43.2646,86 49.7404,86 c 6.4759,0 11.7405,5.0765 11.7405,11.3211 0,6.2449 -5.2646,11.3209 -11.7405,11.3209 z m 0,-21.2942 c -5.7071,0 -10.3427,4.47 -10.3427,9.9733 0,5.5029 4.6356,9.9739 10.3427,9.9739 5.7072,0 10.3428,-4.471 10.3428,-9.9739 0,-5.5033 -4.6589,-9.9733 -10.3428,-9.9733 z"
       fill="#f6f1ff"
       id="path1" />
    <path
       d="m 64.2529,113 c -0.4426,0 -0.9085,-0.157 -1.2579,-0.494 l -6.7321,-6.514 c -0.2795,-0.27 -0.2795,-0.697 0,-0.944 0.2795,-0.269 0.7221,-0.269 0.9784,0 l 6.7321,6.492 c 0.1398,0.135 0.3727,0.135 0.5125,0 0.1397,-0.135 0.1397,-0.359 0,-0.494 l -6.7321,-6.492 c -0.2796,-0.269 -0.2796,-0.696 0,-0.943 0.2795,-0.247 0.7221,-0.27 0.9783,0 l 6.7321,6.491 c 0.6756,0.674 0.6756,1.752 0,2.404 -0.3494,0.337 -0.792,0.494 -1.2579,0.494 z"
       fill="#f6f1ff"
       id="path2" />
  </g>
  <defs
     id="defs104">
    <clipPath
       id="clip0_158_94">
      <rect
         width="28"
         height="27"
         fill="#ffffff"
         transform="translate(38,86)"
         id="rect93"
         x="0"
         y="0" />
    </clipPath>
  </defs>
</svg>
