<?xml version="1.0" encoding="UTF-8" standalone="no"?>
<svg
   width="40"
   height="40"
   viewBox="0 0 40 40"
   fill="none"
   version="1.1"
   id="svg104"
   xmlns="http://www.w3.org/2000/svg"
   xmlns:svg="http://www.w3.org/2000/svg">
  <g
     id="g104"
     transform="translate(-150,-25)">
    <path
       d="m 150,45 c 0,-9.4281 0,-14.1421 2.929,-17.0711 C 155.858,25 160.572,25 170,25 c 9.428,0 14.142,0 17.071,2.9289 C 190,30.8579 190,35.5719 190,45 c 0,9.4281 0,14.1421 -2.929,17.0711 C 184.142,65 179.428,65 170,65 160.572,65 155.858,65 152.929,62.0711 150,59.1421 150,54.4281 150,45 Z"
       fill="#4c20cf"
       id="path25" />
    <g
       clip-path="url(#clip7_158_94)"
       id="g26">
      <path
         d="m 160.058,46.2865 h 7.72 c 0.707,0 1.286,-0.5789 1.286,-1.2865 V 34.7076 c 0,-0.7076 -0.579,-1.2866 -1.286,-1.2866 h -7.72 c -0.707,0 -1.286,0.579 -1.286,1.2866 V 45 c 0,0.7076 0.579,1.2865 1.286,1.2865 z m 0,10.2924 h 7.72 c 0.707,0 1.286,-0.5789 1.286,-1.2865 v -5.1462 c 0,-0.7076 -0.579,-1.2866 -1.286,-1.2866 h -7.72 c -0.707,0 -1.286,0.579 -1.286,1.2866 v 5.1462 c 0,0.7076 0.579,1.2865 1.286,1.2865 z m 12.866,0 h 7.719 c 0.708,0 1.287,-0.5789 1.287,-1.2865 V 45 c 0,-0.7076 -0.579,-1.2866 -1.287,-1.2866 h -7.719 c -0.708,0 -1.287,0.579 -1.287,1.2866 v 10.2924 c 0,0.7076 0.579,1.2865 1.287,1.2865 z m -1.287,-21.8713 v 5.1462 c 0,0.7076 0.579,1.2865 1.287,1.2865 h 7.719 c 0.708,0 1.287,-0.5789 1.287,-1.2865 v -5.1462 c 0,-0.7076 -0.579,-1.2866 -1.287,-1.2866 h -7.719 c -0.708,0 -1.287,0.579 -1.287,1.2866 z"
         fill="#fff143"
         id="path26" />
    </g>
  </g>
  <defs
     id="defs104">
    <clipPath
       id="clip7_158_94">
      <rect
         width="30.877199"
         height="30.877199"
         fill="#ffffff"
         transform="translate(154.912,29.5614)"
         id="rect100"
         x="0"
         y="0" />
    </clipPath>
  </defs>
</svg>
