<?xml version="1.0" encoding="UTF-8" standalone="no"?>
<svg
   width="24"
   height="30"
   viewBox="0 0 24 30"
   fill="none"
   version="1.1"
   id="svg104"
   xmlns="http://www.w3.org/2000/svg"
   xmlns:svg="http://www.w3.org/2000/svg">
  <g
     clip-path="url(#clip1_158_94)"
     id="g7"
     transform="translate(-95,-85)">
    <g
       clip-path="url(#clip2_158_94)"
       id="g6">
      <path
         d="M 118.455,110.869 H 95.5453 c -0.3021,0 -0.5453,-0.234 -0.5453,-0.524 0,-3.033 2.5677,-5.501 5.724,-5.501 h 12.554 c 3.157,0 5.725,2.468 5.725,5.501 0,0.29 -0.244,0.524 -0.546,0.524 z m -22.3312,-1.05 h 21.7522 c -0.271,-2.207 -2.23,-3.927 -4.6,-3.927 h -12.552 c -2.3678,0 -4.3288,1.72 -4.6002,3.927 z"
         fill="#f6f1ff"
         id="path3" />
      <path
         d="M 114.597,105.892 H 99.4058 c -0.3021,0 -0.5453,-0.234 -0.5453,-0.524 v -9.9767 c 0,-4.3154 3.6535,-7.8239 8.1405,-7.8239 4.488,0 8.141,3.5109 8.141,7.8239 v 9.9767 c 0,0.29 -0.243,0.524 -0.545,0.524 z m -14.646,-1.048 h 14.098 v -9.4503 c 0,-3.7347 -3.162,-6.7757 -7.05,-6.7757 -3.889,0 -7.0505,3.0385 -7.0505,6.7757 v 9.4503 z"
         fill="#f6f1ff"
         id="path4" />
      <path
         d="m 107.001,88.618 c -0.302,0 -0.545,-0.2337 -0.545,-0.524 v -3.57 c 0,-0.2903 0.243,-0.524 0.545,-0.524 0.302,0 0.546,0.2337 0.546,0.524 v 3.5675 c 0,0.2903 -0.244,0.5241 -0.546,0.5241 z"
         fill="#f6f1ff"
         id="path5" />
      <path
         d="m 107.001,115 c -2.16,0 -3.917,-1.688 -3.917,-3.764 v -0.893 c 0,-0.291 0.244,-0.524 0.546,-0.524 h 6.74 c 0.302,0 0.546,0.233 0.546,0.524 v 0.893 c 0,2.076 -1.757,3.764 -3.917,3.764 z m -2.826,-4.131 v 0.367 c 0,1.496 1.267,2.713 2.824,2.713 1.556,0 2.823,-1.217 2.823,-2.713 v -0.367 h -5.65 z"
         fill="#f6f1ff"
         id="path6" />
    </g>
  </g>
  <defs
     id="defs104">
    <clipPath
       id="clip1_158_94">
      <rect
         width="30"
         height="30"
         fill="#ffffff"
         transform="translate(92,85)"
         id="rect94"
         x="0"
         y="0" />
    </clipPath>
    <clipPath
       id="clip2_158_94">
      <rect
         width="24"
         height="31"
         fill="#ffffff"
         transform="translate(95,84)"
         id="rect95"
         x="0"
         y="0" />
    </clipPath>
  </defs>
</svg>
