<?xml version="1.0" encoding="UTF-8" standalone="no"?>
<svg
   width="499"
   height="250"
   viewBox="0 0 499 250"
   fill="none"
   version="1.1"
   id="svg240"
   xml:space="preserve"
   sodipodi:docname="performance.svg"
   inkscape:version="1.4.2 (ebf0e94, 2025-05-08)"
   xmlns:inkscape="http://www.inkscape.org/namespaces/inkscape"
   xmlns:sodipodi="http://sodipodi.sourceforge.net/DTD/sodipodi-0.dtd"
   xmlns="http://www.w3.org/2000/svg"
   xmlns:svg="http://www.w3.org/2000/svg"><sodipodi:namedview
     id="namedview1"
     pagecolor="#ffffff"
     bordercolor="#000000"
     borderopacity="0.25"
     inkscape:showpageshadow="2"
     inkscape:pageopacity="0.0"
     inkscape:pagecheckerboard="0"
     inkscape:deskcolor="#d1d1d1"
     inkscape:zoom="0.8502286"
     inkscape:cx="364.01975"
     inkscape:cy="19.994623"
     inkscape:window-width="1280"
     inkscape:window-height="950"
     inkscape:window-x="0"
     inkscape:window-y="46"
     inkscape:window-maximized="1"
     inkscape:current-layer="svg240" /><g
     clip-path="url(#clip5_157_2561)"
     id="g42"
     transform="translate(-592,-201)"><g
       opacity="0.55"
       id="g33"><path
         d="m 1067.22,362.449 1.31,3.168 -72.049,29.909 -1.309,-3.167 z"
         fill="#f6f1ff"
         id="path27" /><path
         d="m 1014.38,281.543 2.44,2.402 -54.626,55.774 -2.442,-2.402 z"
         fill="#f6f1ff"
         id="path28" /><path
         d="m 934.148,227.817 3.184,1.254 -28.505,72.748 -3.185,-1.254 z"
         fill="#f6f1ff"
         id="path29" /><path
         d="m 839.273,209.883 3.42,-0.095 2.164,78.126 -3.42,0.096 z"
         fill="#f6f1ff"
         id="path30" /><path
         d="m 744.974,230.477 3.111,-1.428 32.488,71.051 -3.11,1.429 z"
         fill="#f6f1ff"
         id="path31" /><path
         d="m 666.339,286.463 2.305,-2.534 57.633,52.651 -2.304,2.534 z"
         fill="#f6f1ff"
         id="path32" /><path
         d="m 615.679,368.86 1.132,-3.235 73.593,25.857 -1.132,3.236 z"
         fill="#f6f1ff"
         id="path33" /></g><path
       opacity="0.89"
       d="M 841.55,201 C 979.306,201 1091,312.94 1091,451 h -97.304 c 0,-84.207 -68.124,-152.582 -152.246,-152.582 -84.123,0 -152.246,68.274 -152.246,152.582 H 591.899 C 592,312.94 703.795,201 841.55,201 Z"
       fill="url(#paint7_linear_157_2561)"
       id="path34"
       style="fill:url(#paint7_linear_157_2561)" /><g
       opacity="0.55"
       id="g41"><path
         d="m 1067.24,360.487 1.31,3.168 -72.057,29.897 -1.309,-3.168 z"
         fill="#f6f1ff"
         id="path35" /><path
         d="m 1014.34,279.642 2.45,2.402 -54.636,55.774 -2.441,-2.402 z"
         fill="#f6f1ff"
         id="path36" /><path
         d="m 934.012,225.99 3.184,1.253 -28.505,72.748 -3.185,-1.253 z"
         fill="#f6f1ff"
         id="path37" /><path
         d="m 839.226,208.011 3.42,-0.095 2.177,78.126 -3.42,0.096 z"
         fill="#f6f1ff"
         id="path38" /><path
         d="m 744.924,228.625 3.111,-1.428 32.488,71.051 -3.111,1.429 z"
         fill="#f6f1ff"
         id="path39" /><path
         d="m 666.166,284.642 2.305,-2.534 57.634,52.651 -2.305,2.534 z"
         fill="#f6f1ff"
         id="path40" /><path
         d="m 615.647,367.044 1.132,-3.236 73.593,25.858 -1.132,3.236 z"
         fill="#f6f1ff"
         id="path41" /></g><path
       d="m 920.683,268.518 -46.204,84.29 -46.203,84.289 c 7.715,-3.786 16.902,0.659 18.723,9.063 l 36.806,-88.824 36.805,-88.824 z"
       fill="#fff143"
       id="path42" /></g><defs
     id="defs240"><linearGradient
       id="paint7_linear_157_2561"
       x1="1091"
       y1="326.04999"
       x2="592"
       y2="326.04999"
       gradientUnits="userSpaceOnUse"><stop
         stop-color="#57B845"
         id="stop198" /><stop
         offset="0.22"
         stop-color="#98ED3A"
         id="stop199" /><stop
         offset="0.26"
         stop-color="#A5EE2F"
         id="stop200" /><stop
         offset="0.4"
         stop-color="#D1F30E"
         id="stop201" /><stop
         offset="0.47"
         stop-color="#E3F501"
         id="stop202" /><stop
         offset="0.57"
         stop-color="#EAD600"
         id="stop203" /><stop
         offset="0.69"
         stop-color="#F2B600"
         id="stop204" /><stop
         offset="0.76"
         stop-color="#F6AB00"
         id="stop205" /><stop
         offset="0.83"
         stop-color="#F68500"
         id="stop206" /><stop
         offset="0.9"
         stop-color="#F66500"
         id="stop207" /><stop
         offset="0.96"
         stop-color="#F65200"
         id="stop208" /><stop
         offset="1"
         stop-color="#F64C01"
         id="stop209" /></linearGradient><clipPath
       id="clip5_157_2561"><rect
         width="499"
         height="250"
         fill="#ffffff"
         transform="matrix(-1,0,0,1,1091,201)"
         id="rect232"
         x="0"
         y="0" /></clipPath></defs></svg>
